<svg width="418" height="355" viewBox="0 0 418 355" fill="none" xmlns="http://www.w3.org/2000/svg">
<g clip-path="url(#clip0_12_2507)">
<path d="M418 329.503V336.736C418 339.228 412.061 341.256 404.762 341.256H26.9256C23.5009 341.256 20.3738 340.809 18.0226 340.074C17.7717 339.999 17.5267 339.917 17.2933 339.831C15.0588 339.023 13.6877 337.933 13.6877 336.736V329.503C128.71 323.018 270.167 325.213 418 329.503Z" fill="white"/>
<path d="M418 337.471V344.704C418 347.196 412.061 349.223 404.762 349.223H26.9256C23.5009 349.223 20.3738 348.777 18.0226 348.042C17.7717 347.966 17.5267 347.885 17.2933 347.799C15.0588 346.99 13.6877 345.901 13.6877 344.704V337.471C119.561 332.634 263.636 334.191 418 337.471Z" fill="white"/>
<path d="M418 343.248V350.48C418 352.972 412.061 355 404.762 355H26.9256C23.5009 355 20.3738 354.554 18.0226 353.819C17.7717 353.743 17.5267 353.661 17.2933 353.576C15.0588 352.767 13.6877 351.677 13.6877 350.48V343.248C128.243 339.186 267.811 340.15 418 343.248Z" fill="white"/>
<path d="M387.848 325.143C388.419 325.179 388.734 324.467 388.302 324.052L388.259 323.881L388.277 323.84C388.853 322.459 390.809 322.468 391.381 323.852C391.888 325.079 392.535 326.309 392.694 327.607C392.765 328.18 392.733 328.764 392.607 329.326C393.796 326.717 394.422 323.868 394.422 321.003C394.422 320.283 394.383 319.563 394.303 318.845C394.237 318.258 394.146 317.674 394.028 317.095C393.391 313.969 392.013 310.99 390.024 308.503C389.068 307.978 388.271 307.158 387.789 306.175C387.616 305.82 387.481 305.439 387.417 305.05C387.525 305.065 387.827 303.401 387.745 303.299C387.896 303.068 388.168 302.953 388.333 302.728C389.157 301.607 390.291 301.802 390.884 303.326C392.149 303.967 392.161 305.03 391.385 306.053C390.891 306.704 390.823 307.584 390.39 308.281C390.434 308.338 390.481 308.394 390.525 308.451C391.343 309.504 392.05 310.636 392.646 311.825C392.478 310.504 392.726 308.911 393.15 307.885C393.633 306.716 394.538 305.731 395.335 304.72C396.292 303.506 398.255 304.036 398.423 305.575L398.428 305.62C398.31 305.687 398.194 305.758 398.08 305.833C397.434 306.262 397.658 307.268 398.423 307.386L398.44 307.389C398.398 307.817 398.324 308.242 398.217 308.659C399.24 312.628 397.033 314.074 393.882 314.139C393.812 314.174 393.744 314.21 393.675 314.244C393.994 315.147 394.249 316.073 394.438 317.011C394.608 317.84 394.725 318.678 394.791 319.52C394.873 320.582 394.866 321.649 394.777 322.709L394.782 322.672C395.009 321.504 395.64 320.414 396.557 319.658C397.923 318.531 399.852 318.117 401.325 317.211C402.035 316.775 402.943 317.339 402.82 318.164L402.814 318.204C402.594 318.293 402.38 318.397 402.173 318.514C402.055 318.581 401.939 318.652 401.826 318.727C401.18 319.156 401.403 320.162 402.168 320.28L402.186 320.283L402.221 320.288C401.845 321.185 401.321 322.018 400.664 322.736C400.025 326.201 397.28 326.53 394.344 325.521H394.342C394.021 326.925 393.552 328.297 392.949 329.604H387.973C387.955 329.548 387.939 329.491 387.923 329.436C388.383 329.464 388.847 329.437 389.3 329.353C388.931 328.898 388.562 328.44 388.192 327.985C388.183 327.976 388.176 327.967 388.169 327.958C387.982 327.725 387.793 327.494 387.606 327.262C387.594 326.547 387.679 325.834 387.848 325.143Z" fill="white"/>
<path d="M166.731 319.871C167.301 319.907 167.617 319.195 167.185 318.78L167.142 318.609L167.159 318.568C167.736 317.186 169.691 317.196 170.263 318.579C170.771 319.807 171.417 321.037 171.577 322.335C171.648 322.908 171.616 323.492 171.489 324.054C172.679 321.445 173.305 318.596 173.305 315.731C173.305 315.011 173.266 314.291 173.185 313.573C173.119 312.985 173.028 312.401 172.911 311.823C172.274 308.696 170.895 305.718 168.907 303.231C167.951 302.706 167.153 301.886 166.672 300.903C166.499 300.548 166.363 300.167 166.299 299.778C166.408 299.792 166.709 298.129 166.627 298.027C166.779 297.796 167.05 297.681 167.216 297.455C168.039 296.334 169.174 296.53 169.766 298.054C171.032 298.695 171.044 299.758 170.268 300.781C169.774 301.432 169.706 302.312 169.272 303.009C169.317 303.066 169.363 303.122 169.408 303.179C170.226 304.232 170.933 305.364 171.529 306.553C171.36 305.231 171.609 303.639 172.033 302.613C172.516 301.444 173.421 300.459 174.218 299.448C175.175 298.234 177.137 298.764 177.306 300.303L177.311 300.348C177.192 300.415 177.076 300.486 176.963 300.561C176.317 300.99 176.54 301.996 177.306 302.114L177.323 302.117C177.28 302.545 177.207 302.969 177.1 303.387C178.122 307.356 175.916 308.801 172.764 308.866C172.695 308.902 172.627 308.938 172.558 308.972C172.877 309.875 173.132 310.8 173.321 311.739C173.49 312.568 173.608 313.406 173.674 314.248C173.756 315.31 173.749 316.377 173.66 317.437L173.665 317.4C173.892 316.232 174.523 315.141 175.44 314.386C176.805 313.259 178.735 312.844 180.208 311.939C180.917 311.503 181.826 312.066 181.702 312.892L181.696 312.932C181.477 313.021 181.263 313.125 181.056 313.241C180.938 313.308 180.822 313.38 180.708 313.455C180.062 313.884 180.286 314.889 181.051 315.008L181.068 315.011L181.104 315.016C180.728 315.913 180.203 316.746 179.547 317.464C178.908 320.929 176.163 321.258 173.226 320.249H173.225C172.904 321.653 172.434 323.024 171.832 324.332H166.856C166.838 324.276 166.822 324.219 166.806 324.163C167.266 324.192 167.73 324.165 168.183 324.081C167.813 323.626 167.444 323.168 167.075 322.713C167.066 322.704 167.059 322.695 167.052 322.686C166.865 322.453 166.676 322.222 166.488 321.989C166.477 321.275 166.562 320.562 166.731 319.871Z" fill="white"/>
<path d="M335.479 325.682L332.406 325.682L330.943 313.777L335.48 313.777L335.479 325.682Z" fill="#FFB6B6"/>
<path d="M335.588 328.902L326.135 328.902V328.782C326.135 326.742 327.782 325.088 329.814 325.088L331.541 323.772L334.763 325.088H335.588L335.588 328.902Z" fill="#2F2E41"/>
<path d="M375.333 308.758L373.348 311.114L363.351 304.547L366.281 301.069L375.333 308.758Z" fill="#FFB6B6"/>
<path d="M377.851 310.755L371.746 318.001L371.655 317.923C370.104 316.606 369.91 314.275 371.222 312.717L371.337 310.544L374.418 308.924L374.951 308.291L377.851 310.755Z" fill="#2F2E41"/>
<path d="M350.487 238.116L334.008 240.036L327.512 251.209L326.581 254.95L327.003 257.522L325.96 259.314L326.581 262.743L324.097 289.864L330.927 320.414H337.292L335.274 292.046L340.552 267.731L345.209 291.423L366.746 310.255L371.762 303.034L355.144 288.929L353.591 283.941L355.683 279.724L357.317 251.833L350.487 238.116Z" fill="#2F2E41"/>
<path d="M342.642 248.34C342.642 248.34 353.033 251.588 354.127 247.912C355.222 244.237 353.856 239.693 352.82 239.21C351.784 238.727 353.013 235.559 354.162 233.441C355.311 231.323 355.134 230.158 354.474 229.905C353.814 229.651 343.528 204.001 343.528 204.001L340.03 203.263L337.226 199.807L331.273 200.53L328.838 205.053L324.76 207.223L323.271 220.986C323.271 220.986 324.003 226.884 325.494 233.088C325.958 235.019 326.496 236.979 327.108 238.801C328.549 243.091 330.402 246.612 332.678 247.162C339.025 248.698 342.642 248.34 342.642 248.34Z" fill="#FFA500"/>
<path d="M307.188 224.198L305.068 224.589L304.577 224.679L303.791 224.827L287.429 227.851C286.57 228.411 285.444 228.32 284.685 227.627C283.81 226.814 283.757 225.441 284.567 224.563C284.58 224.548 284.595 224.536 284.609 224.521C285.455 223.632 286.857 223.583 287.764 224.408C287.851 224.492 287.931 224.582 288.003 224.678L288.445 224.533L289.83 224.08L290.876 223.738L292.958 223.054L293.765 222.791L296.382 221.934L298.907 221.109L301.965 220.108L304.317 219.337L304.785 220.13L307.188 224.198Z" fill="#FFB6B6"/>
<path d="M311.054 224.862C310.596 224.913 310.294 224.925 310.189 224.901C309.312 224.689 310.282 224.114 308.342 224.946C306.767 225.619 306.635 224.408 306.407 224.925C306.031 225.778 305.501 224.911 305.068 224.589C304.876 224.445 304.706 224.411 304.578 224.679C304.531 224.77 304.492 224.898 304.46 225.072C304.357 225.592 304.104 225.385 303.791 224.827C303.276 223.901 302.603 222.013 302.22 220.866C302.107 220.541 302.021 220.274 301.965 220.108C301.926 219.984 301.905 219.913 301.905 219.913C301.905 219.913 302.027 219.559 302.625 219.252C303.041 219.034 303.695 218.841 304.703 218.806C305.323 218.784 305.809 218.915 306.184 218.965C306.404 218.995 306.586 218.996 306.733 218.927L306.737 218.926C306.901 218.852 307.026 218.695 307.119 218.393C307.288 217.85 307.995 217.915 308.694 218.092C309.352 218.264 310.009 218.53 310.203 218.473C310.483 218.39 317.893 211.815 322.626 207.598C324.789 205.67 328.087 205.822 330.065 207.94L332.077 210.095C332.077 210.095 333.369 210.953 333.603 212.561C333.699 213.238 333.609 214.05 333.15 214.993C332.747 215.818 332.058 216.745 330.965 217.761C326.324 222.084 314.433 224.493 311.054 224.862Z" fill="#FFA500"/>
<path d="M357.3 226.349L358.083 228.366L358.264 228.832L358.557 229.58L364.603 245.142C365.314 245.883 365.437 247.011 364.902 247.891C364.273 248.907 362.94 249.218 361.928 248.586C361.911 248.575 361.896 248.562 361.879 248.552C360.85 247.885 360.538 246.512 361.173 245.462C361.239 245.361 361.311 245.264 361.391 245.175L361.166 244.767L360.462 243.487L359.93 242.52L358.869 240.596L358.458 239.85L357.126 237.431L355.843 235.098L354.286 232.271L353.088 230.098L353.776 229.486L357.3 226.349Z" fill="#FFB6B6"/>
<path d="M357.219 222.412C357.356 222.854 357.425 223.149 357.421 223.257C357.379 224.163 356.633 223.314 357.813 225.07C358.769 226.496 357.61 226.855 358.158 226.982C359.064 227.192 358.316 227.878 358.083 228.366C357.978 228.582 357.977 228.756 358.264 228.832C358.361 228.861 358.494 228.875 358.67 228.874C359.198 228.877 359.044 229.166 358.557 229.58C357.748 230.262 356.029 231.282 354.979 231.877C354.683 232.05 354.438 232.185 354.286 232.271C354.172 232.334 354.107 232.367 354.107 232.367C354.107 232.367 353.738 232.314 353.324 231.783C353.032 231.413 352.72 230.805 352.496 229.817C352.357 229.21 352.393 228.707 352.372 228.327C352.36 228.105 352.326 227.925 352.231 227.793L352.229 227.79C352.126 227.642 351.948 227.549 351.636 227.513C351.073 227.45 351.003 226.74 351.044 226.017C351.088 225.336 351.224 224.638 351.132 224.457C350.935 224.074 344.171 217.263 344.171 217.263L338.808 204.471C338.808 204.471 339.403 203.035 340.932 202.501C341.575 202.278 342.387 202.213 343.396 202.488C344.278 202.729 345.315 203.234 346.515 204.12C351.619 207.88 356.221 219.15 357.219 222.412Z" fill="#FFA500"/>
<path d="M332.328 199.025C336.281 199.025 339.486 195.807 339.486 191.837C339.486 187.868 336.281 184.65 332.328 184.65C328.375 184.65 325.17 187.868 325.17 191.837C325.17 195.807 328.375 199.025 332.328 199.025Z" fill="#FFB6B6"/>
<path d="M338.397 197.511C338.397 197.511 336.025 198.489 334.845 198.626C335.438 197.708 336.261 196.072 336.852 195.157C337.162 194.674 337.478 194.182 337.619 193.629C337.758 193.071 337.696 192.433 337.318 192.007C336.955 191.593 336.32 191.45 335.818 191.669C335.312 191.885 334.98 192.445 335.024 192.99C334.579 192.821 334.481 192.222 334.563 191.75C334.645 191.278 334.837 190.794 334.703 190.332C334.575 189.884 334.15 189.568 333.697 189.452C333.248 189.336 332.772 189.39 332.312 189.477C330.999 189.72 329.722 190.219 328.383 190.236C328.119 190.24 327.85 190.217 327.582 190.171C327.808 189.436 327.795 188.626 327.507 187.913C327.234 188.582 326.833 189.197 326.335 189.722C325.784 189.406 325.349 188.943 325.156 188.336C324.942 187.664 325.065 186.918 325.357 186.277C325.492 185.983 325.66 185.706 325.852 185.444C326.044 185.456 326.24 185.448 326.43 185.421C326.85 185.368 327.253 185.242 327.623 185.031C327.241 184.931 326.87 184.79 326.519 184.607C326.535 184.587 326.549 184.571 326.565 184.551C326.919 184.149 327.301 183.739 327.804 183.561C328.306 183.384 328.961 183.518 329.206 183.996C330.585 182.808 332.452 182.209 334.263 182.376C336.043 182.541 337.746 183.441 338.889 184.826C338.532 185.052 338.218 185.339 337.973 185.685C338.439 185.599 338.918 185.576 339.391 185.612C339.598 186.059 339.669 186.54 339.448 186.964C339.889 187.375 340.773 188.106 340.211 188.239C341.104 189.715 341.425 191.531 341.094 193.226C340.761 194.924 339.78 196.484 338.397 197.511Z" fill="#2F2E41"/>
<path d="M241.798 325.327L245.61 325.326L247.423 310.564L241.797 310.564L241.798 325.327Z" fill="#A0616A"/>
<path d="M241.664 329.319L253.385 329.319V329.17C253.385 326.64 251.343 324.589 248.823 324.589L246.682 322.958L242.687 324.589L241.664 324.589L241.664 329.319Z" fill="#2F2E41"/>
<path d="M209.744 322.01L213.352 323.246L219.814 309.861L214.489 308.038L209.744 322.01Z" fill="#A0616A"/>
<path d="M208.333 325.746L219.427 329.545L219.475 329.404C220.288 327.009 219.015 324.406 216.63 323.589L215.128 321.352L210.822 321.601L209.854 321.269L208.333 325.746Z" fill="#2F2E41"/>
<path d="M251.289 244.89C251.289 244.89 254.956 256.2 254.279 257.688C253.602 259.177 252.447 258.017 253.602 259.177C254.757 260.337 255.766 259.104 254.684 261.073C253.602 263.042 251.964 279.254 251.243 280.039C250.523 280.824 249.532 280.845 250.412 281.607C251.293 282.37 252.447 280.824 251.293 282.37C250.138 283.916 247.073 319.585 247.073 319.585H241.086C241.086 319.585 239.595 317.86 240.439 316.736C241.283 315.613 240.365 315.18 240.439 314.43C240.513 313.681 240.232 312.064 240.18 311.326C240.128 310.588 239.116 293.012 241.547 282.859L237.115 263.527L231.745 286.892C231.745 286.892 223.13 304.148 220.66 310.449C220.66 310.449 222.652 312.113 221.769 313.078C220.885 314.043 220.115 313.27 220.885 314.043C221.655 314.816 219.73 317.522 219.73 317.522L210.852 317.136L220.567 282.859C220.567 282.859 219.942 279.04 220.567 278.386C221.191 277.731 221.191 280.051 221.191 277.731V274.639C221.191 274.639 221.553 255.619 221.601 254.499C221.649 253.379 226.269 245.261 226.269 245.261L251.289 244.89Z" fill="#2F2E41"/>
<path d="M251.141 205.828V228.129C251.141 228.129 250.022 231.21 250.045 234.824C250.069 238.616 250.899 242.985 250.897 244.895C250.897 245.224 250.873 245.478 250.815 245.647C247.139 256.345 227.688 246.623 225.92 245.712C225.835 245.67 225.791 245.647 225.791 245.647L226.174 233.664L226.109 230.218L225.654 206.582L226.061 206.255L229.63 203.398L229.979 203.118L231.051 204.688L240.607 204.028L244.254 203.015L245.392 203.48L250.521 205.574L251.141 205.828Z" fill="#2E8B57"/>
<path d="M279.879 235.748L274.466 231.207L271.451 233.95L277.344 238.547C277.386 238.771 277.462 238.994 277.573 239.207C278.178 240.367 279.605 240.815 280.76 240.207C281.915 239.6 282.36 238.167 281.756 237.007C281.37 236.268 280.649 235.819 279.879 235.748Z" fill="#A0616A"/>
<path d="M246.312 205.374C245.055 207.135 245.875 209.99 246.613 212.026C247.559 214.643 259.037 226.045 261.971 226.653C264.246 227.124 263.758 227.076 264.357 228.543C264.956 230.011 263.169 229.588 265.366 230.676C267.564 231.764 267.953 230.909 268.058 232.071C268.163 233.232 267.5 233.644 269.067 234.204C270.634 234.764 270.907 235.207 271.401 235.514C271.895 235.82 274.608 238.735 274.608 238.735C274.608 238.735 277.458 235.43 279.719 234.639C279.719 234.639 276.039 232.632 276.071 231.692C276.103 230.753 276.628 230.119 275.556 229.866C274.483 229.612 273.516 230.52 274.21 229.168C274.904 227.817 268.68 222.178 268.68 222.178C266.381 216.959 260.305 211.363 253.527 205.697C251.467 203.975 248.516 203.843 246.312 205.374Z" fill="#2E8B57"/>
<path d="M223.5 250.235L223.196 243.159L219.147 242.769L219.733 250.239C219.596 250.421 219.483 250.627 219.401 250.853C218.954 252.083 219.586 253.444 220.811 253.892C222.036 254.34 223.391 253.706 223.837 252.476C224.122 251.691 223.967 250.855 223.5 250.235Z" fill="#A0616A"/>
<path d="M227.733 205.894L227.62 205.907C225.477 206.161 223.596 207.46 222.594 209.379C221.305 211.844 217.226 228.54 218.225 230.831C219.156 232.968 219.117 232.442 218.441 233.875C217.764 235.309 216.871 233.697 217.55 236.061C218.229 238.425 219.121 238.138 218.337 238.998C217.553 239.858 216.803 239.644 217.446 241.183C218.09 242.723 217.947 243.225 218.055 243.798C218.162 244.371 217.844 248.347 217.844 248.347C217.844 248.347 222.196 248.237 224.301 249.382C224.301 249.382 223.3 245.299 224.013 244.689C224.726 244.08 225.546 244.044 225.011 243.077C224.475 242.11 223.155 242.003 224.617 241.608C226.08 241.214 226.039 232.796 226.039 232.796L227.733 205.894Z" fill="#2E8B57"/>
<path d="M238.168 196.876C237.997 196.916 237.826 196.95 237.655 196.976C237.125 197.063 236.594 197.09 236.076 197.058C234.505 196.976 233.023 196.393 231.825 195.433C230.558 194.42 229.613 192.987 229.216 191.283C228.283 187.26 230.777 183.234 234.784 182.297C238.733 181.371 242.682 183.788 243.691 187.708C243.707 187.769 243.722 187.827 243.735 187.888C244.668 191.914 242.177 195.937 238.168 196.876Z" fill="#A0616A"/>
<path d="M231.288 195.993C230.252 195.178 230.151 193.626 229.266 192.647C227.787 191.01 227.092 189.249 227.867 187.31C228.552 185.595 228.407 183.487 229.883 182.383C229.158 182.119 228.987 181.572 229.627 181.562C230.058 181.555 231.666 182.383 230.892 181.352C230.119 180.321 231.583 180.728 231.486 180.306C231.39 179.883 230.768 179.65 230.494 179.984C231.369 178.955 233.279 179.175 233.9 180.375C234.772 179.063 235.697 178.161 237.031 178.993C238.341 179.811 238.324 180.822 239.733 180.579C240.396 180.465 240.458 181.721 240.911 182.22C241.363 182.719 242.025 183.105 242.685 182.98C243.345 182.855 243.85 182.028 243.48 181.465L245.037 185.03L245.664 184.258C246.661 184.91 246.334 186.612 245.33 187.254C244.327 187.896 242.412 186.412 241.868 187.474C241.009 189.148 238.996 188.303 237.613 187.12C235.936 185.685 233.912 190.048 234.72 192.106C233.882 191.279 232.331 191.965 231.897 193.061C231.463 194.157 231.782 195.392 232.103 196.526L231.288 195.993Z" fill="#2F2E41"/>
<path d="M245.485 203.48L245.225 203.812L244.526 204.704L241.939 212.376L229.723 203.398L230.072 203.118L231.933 199.148L241.489 198.488L244.348 203.015L245.485 203.48Z" fill="#E6E6E6"/>
<path d="M368.071 82.1147C372.446 74.0306 375.288 66.1046 376.303 58.7937C372.246 58.3174 368.658 58.6492 365.524 59.7055C370.919 50.6789 374.521 39.5625 369.833 33.8559C366.881 30.7102 363.065 28.3552 358.555 26.7911C360.014 20.0133 360.031 13.6632 358.368 8.08046C350.656 -17.9118 299.606 28.9176 267.028 8.64867C253.37 0.154477 238.667 10.8572 226.76 28.0682C228.393 33.7915 231.41 39.1106 235.645 43.2874C230.249 42.9008 224.94 41.3074 220.214 38.6596C207.472 61.6173 199.771 90.357 203.627 103.35C206.13 111.78 212.122 117.445 220.529 120.362C219.07 127.14 250.585 175.794 256.392 175.743C271.829 175.609 276.629 140.4 286.936 185.52L263.976 326.295H297.231V181.114C306.485 166.769 316.043 176.364 338.071 165.199C405.637 130.953 376.833 93.2072 368.071 82.1147Z" fill="white"/>
<path d="M90.586 273.523L91.1236 283.95L96.0597 285.305C96.0597 285.305 93.9486 273.097 93.8166 272.729C94.1195 272.285 94.2847 271.741 94.2491 271.162C94.1643 269.782 92.9812 268.732 91.6065 268.817C90.2319 268.903 89.1862 270.091 89.2711 271.471C89.3263 272.37 89.8491 273.127 90.586 273.523Z" fill="#FFB6B6"/>
<path d="M72.8236 296.829L72.7069 297.075C72.316 297.169 72.3802 297.058 72.8236 296.829Z" fill="#FFA500"/>
<path d="M93.996 294.609C91.3181 293.877 88.5643 293.678 85.9506 293.789C83.1793 293.9 80.5714 294.363 78.4011 294.902C77.9985 293.514 77.6193 292.043 77.3451 290.655L80.2972 288.728L83.5469 287.585L90.3496 285.195L90.2621 281.487L90.9797 281.153L95.0112 279.285L95.1045 279.244L98.0041 287.14C99.1184 290.333 97.2632 293.789 93.996 294.609Z" fill="#FFA500"/>
<path d="M148.057 106.534C146.879 95.3586 130.921 95.6799 134.481 84.9223C127.708 87.9392 121.477 92.1395 116.233 97.4234C130.606 50.2035 74.9472 86.1148 74.9472 86.1148C74.9472 86.1148 59.5689 79.4619 55.232 76.4455C37.9137 64.6083 11.1773 94.0232 33.3845 109.941C8.68612 98.2346 6.61299 116.381 2.33014 137.481C3.96372 143.204 6.98001 148.523 11.2166 152.701C4.24407 152.316 -2.53854 147.261 0.941593 157.518C7.19883 170.136 17.6837 172.426 15.5805 188.099C15.7373 201.728 42.4735 205.222 71.5647 202.335C54.962 249.814 45.9385 293.883 53.8904 330.314H82.3598C72.5235 286.391 70.3691 243.338 78.834 201.487C111.127 197.168 143.841 185.482 144.598 171.434C148.483 161.241 147.142 149.97 141.727 139.338C148.238 127.311 150.782 115.724 148.057 106.534Z" fill="white"/>
<path d="M79.4246 300.369L80.4156 304.645C80.4156 304.645 80.4254 308.587 81.1208 309.314C81.8113 310.038 96.9956 308.585 96.9956 308.585C96.9956 308.585 95.3857 302.232 95.4071 297.425L79.4246 300.369Z" fill="#FFB6B6"/>
<path d="M137.99 339.388L140.604 337.496L134.517 326.203L130.66 328.996L137.99 339.388Z" fill="#FFB6B6"/>
<path d="M148.068 333.929C148.021 333.864 147.974 333.806 147.922 333.747C147.77 333.589 147.583 333.466 147.385 333.395L147.373 333.39C147.146 333.302 146.901 333.278 146.656 333.313L145.576 333.483L141.399 334.134L140.518 334.274L138.931 332.599L138.319 333.255L136.207 335.528L135.67 336.102L135.256 336.547L140.361 342.944L142.111 341.275L140.857 339.318L143.225 340.214L144.561 338.937L145.454 338.094L147.869 335.791C148.109 335.563 148.249 335.276 148.301 334.971C148.359 334.614 148.284 334.239 148.068 333.929Z" fill="#2F2E41"/>
<path d="M136.428 328.745L131.7 330.871C126.802 325.67 121.873 318.988 118.785 308.061C111.73 317.232 105.516 322.424 97.079 326.977C94.23 328.527 83.9238 329.083 82.3204 326.182C82.2454 326.046 82.1757 325.908 82.1112 325.767C80.6372 322.506 81.9405 314.018 81.1067 309.706C84.1529 304.092 91.5853 308.627 96.6694 306.416L102.358 308.897L112.908 296.303C115.029 293.77 118.829 293.492 121.394 295.683C121.529 295.798 121.66 295.92 121.785 296.047C123.911 299.669 125.944 303.23 127.798 306.675C128.396 307.787 130.28 309.282 129.535 309.973C128.79 310.665 130.691 312.251 131.23 313.365C134.548 320.221 135.935 323.728 136.428 328.745Z" fill="#2F2E41"/>
<path d="M77.2181 273.3L83.4801 272.928C84.0214 272.896 84.5234 273.212 84.7302 273.716L86.4998 278.023L93.8545 284.127C93.8545 284.127 96.7664 287.847 96.7732 292.653C96.7799 297.458 96.6694 306.416 96.6694 306.416C96.6694 306.416 93.5565 302.573 90.9334 304.171C90.4872 304.443 90.3302 304.998 89.8628 305.279C89.6296 305.419 89.0909 305.283 88.8555 305.424C85.2409 307.578 81.6176 309.212 81.1191 309.314C79.2474 309.695 78.6612 308.244 79.9249 306.224C80.3374 305.564 79.5887 304.886 79.5887 304.886C78.6378 304.363 78.2823 303.621 78.9438 302.507L73.8567 283.74C73.2458 281.486 73.6188 279.054 74.9658 277.15C75.3663 276.583 75.7859 276.162 76.1758 276.093C77.0512 275.905 76.5855 273.935 77.2181 273.3Z" fill="#FFA500"/>
<path d="M152.394 340.864L153.584 337.861L142.353 331.723L140.598 336.156L152.394 340.864Z" fill="#FFB6B6"/>
<path d="M148.542 334.297L147.133 339.694C137.588 337.201 127.753 331.344 117.78 323.898C106.773 327.317 96.3331 329.366 86.8403 328.211C83.6277 327.83 81.2067 324.811 81.5572 321.513C81.5736 321.358 81.5958 321.205 81.6237 321.053C82.2859 317.535 87.8125 314.446 89.5991 310.438L101.348 313.247L102.22 315.514L104.866 314.812L107.1 314.219L109.657 313.541L118.04 311.317C121.221 310.473 124.482 312.443 125.323 315.716C125.367 315.889 125.404 316.064 125.433 316.24L137.043 325.312C137.043 325.312 138.079 327.744 138.876 326.744C139.672 325.743 141.163 328.531 141.163 328.531L148.542 334.297Z" fill="#2F2E41"/>
<path d="M161.025 333.214C160.588 333.038 160.086 333.091 159.695 333.354L154.526 336.817L152.385 335.961L152.041 337.016L150.961 340.29L150.699 341.093L158.009 344.748L158.902 342.493L156.941 341.245L159.468 341.064L161.831 335.088C162.122 334.35 161.761 333.507 161.025 333.214Z" fill="#2F2E41"/>
<path d="M70.4299 261.011C70.2673 261.745 70.0898 262.51 69.6081 263.086C69.1264 263.662 68.2399 263.972 67.608 263.568C66.8353 263.074 66.8969 261.942 67.0508 261.035L67.539 258.161C67.6321 257.613 67.7283 257.055 67.9806 256.559C68.2329 256.064 68.6703 255.633 69.2147 255.53C69.7907 255.421 70.3924 255.706 70.7765 256.15C71.1606 256.594 71.3537 257.176 71.4481 257.757C71.6986 259.297 71.2873 260.935 70.3391 262.172L70.4299 261.011Z" fill="#2F2E41"/>
<path d="M68.1278 256.889C67.0857 255.612 64.9128 255.804 63.755 256.975C62.5972 258.147 62.3099 259.954 62.5153 261.592C62.7202 263.229 63.5789 269.949 63.8498 271.239C64.1887 272.853 61.6627 274.031 60.0474 273.727C60.1748 274.858 60.9355 275.866 61.929 276.414C62.9231 276.961 64.1184 277.073 65.2304 276.857C65.6803 276.769 66.122 276.627 66.5391 276.432C66.3506 275.944 66.2336 275.428 66.2 274.904C66.4154 275.368 66.7163 275.789 67.0802 276.145C67.6716 275.786 68.1929 275.318 68.5921 274.752C69.3747 273.644 69.6513 272.163 69.2148 270.876C68.7069 269.373 67.3692 268.336 66.4207 267.065C65.4711 265.796 64.9856 263.812 66.1502 262.738C67.0371 261.92 66.9839 262.101 68.1732 262.291L68.1278 256.889Z" fill="#2F2E41"/>
<path d="M83.7897 262.253C83.7897 266.203 80.6011 269.404 76.6679 269.404C72.7346 269.404 68.9983 264.828 68.9983 260.878C68.9983 256.929 72.7346 255.103 76.6679 255.103C80.6011 255.103 83.7897 258.304 83.7897 262.253Z" fill="#2F2E41"/>
<path d="M78.8152 270.961C82.5677 270.961 85.6097 267.907 85.6097 264.139C85.6097 260.371 82.5677 257.317 78.8152 257.317C75.0627 257.317 72.0208 260.371 72.0208 264.139C72.0208 267.907 75.0627 270.961 78.8152 270.961Z" fill="#FFB6B6"/>
<path d="M87.3506 263.079C85.3392 263.63 83.3084 264.208 82.5242 263.079C82.3708 262.331 82.0832 261.613 81.6723 260.972C81.5956 261.692 81.4258 262.402 81.1711 263.079C80.2876 263.238 79.059 263.238 79.059 263.238C78.7714 263.736 77.4558 264.56 77.4092 265.157C77.3079 265.091 77.2011 265.038 77.0915 264.989C76.9545 264.931 76.7929 264.881 76.6587 264.95C76.5574 265.002 76.4998 265.115 76.4807 265.228C76.4615 265.341 76.4779 265.456 76.4971 265.572C76.5546 265.96 76.6176 266.364 76.8395 266.688C76.9956 266.919 77.2586 267.101 77.527 267.131C77.8119 268.74 78.4417 270.916 78.4417 270.916C71.5939 271.191 69.5461 266.115 69.5461 261.703L70.3679 260.053H73.107V256.478H80.7766C84.406 256.478 87.3506 259.434 87.3506 263.079Z" fill="#2F2E41"/>
<path d="M100.266 315.929C98.8711 315.837 97.8148 314.627 97.9065 313.226C97.9158 313.085 97.9391 312.949 97.97 312.816L81.739 300.583L85.9857 298.691L101.186 310.97C102.277 311.312 103.035 312.365 102.957 313.56C102.865 314.96 101.66 316.021 100.266 315.929Z" fill="#FFB6B6"/>
<path d="M96.8781 306.665L96.1605 306.911L92.0765 308.311C92.0765 308.311 91.989 308.27 91.8315 308.194C90.2038 307.392 81.0265 302.816 80.4781 301.217C80.2097 300.432 79.2587 297.837 78.4011 294.902C77.9985 293.514 77.6193 292.043 77.3451 290.655C76.9017 288.429 76.7383 286.402 77.1992 285.23C78.5528 281.792 81.6449 282.676 81.6449 282.676L83.5469 287.585L85.9506 293.789L87.8934 298.804C90.4488 299.489 93.5759 302.711 96.8781 306.665Z" fill="#FFA500"/>
<path d="M92.3624 267.797C92.2866 267.797 92.2108 267.809 92.1407 267.82C92.0416 267.709 91.9132 267.627 91.7557 267.586C91.6857 267.563 91.604 267.557 91.5223 267.557L86.359 267.691C86.3182 267.691 86.2715 267.697 86.2365 267.703C86.0556 267.738 85.8981 267.832 85.7873 267.961C85.7464 268.002 85.7114 268.049 85.6823 268.101C85.5714 268.289 85.5422 268.523 85.6181 268.758C85.3216 271.11 85.4322 273.361 86.5165 275.371C86.6274 275.705 86.9483 275.934 87.2983 275.928L90.653 275.84C90.6705 275.84 90.688 275.84 90.7055 275.834C91.0381 275.805 91.324 275.576 91.4114 275.248C92.2332 273.518 92.4065 271.817 91.8841 270.146C92.0474 270.222 92.2341 270.263 92.4208 270.257C92.9109 270.246 93.3251 269.947 93.506 269.531C93.5818 269.367 93.6227 269.185 93.6168 268.998C93.5993 268.318 93.0334 267.779 92.3624 267.797ZM92.415 269.906C92.2574 269.912 92.1116 269.871 91.9832 269.8L92.2458 268.857L92.3216 268.582C92.3624 268.435 92.3566 268.289 92.3216 268.154C92.3391 268.154 92.3566 268.148 92.3741 268.148C92.8525 268.137 93.2551 268.523 93.2668 269.004C93.2668 269.103 93.2551 269.203 93.2259 269.291C93.1151 269.642 92.8 269.894 92.415 269.906Z" fill="#2E8B57"/>
<path d="M86.2339 267.705C86.3439 268.336 87.5806 268.78 89.0677 268.703C90.4351 268.64 91.5532 268.157 91.7581 267.586C91.6866 267.563 91.6064 267.555 91.5244 267.555L86.3612 267.689C86.3169 267.692 86.2725 267.695 86.2339 267.705Z" fill="#FFA500"/>
</g>
<defs>
<clipPath id="clip0_12_2507">
<rect width="418" height="355" fill="white"/>
</clipPath>
</defs>
</svg>
