<svg width="352" height="274" viewBox="0 0 352 274" fill="none" xmlns="http://www.w3.org/2000/svg">
<path d="M253.933 50.7295H228.152V9.54111L253.933 17.7788V50.7295Z" fill="#2F2E41"/>
<path d="M258.51 259.855L253.189 259.981L250.224 236.051L258.075 235.865L258.51 259.855Z" fill="#A0616A"/>
<path d="M240.256 270.968C240.256 271.868 240.894 272.598 241.681 272.598H252.241C252.241 272.598 253.281 268.415 257.518 266.615L257.81 272.598H263.258L262.598 262.978C262.598 262.978 264.055 257.832 261.029 255.201C258.002 252.571 260.453 252.937 260.453 252.937L259.263 246.983L251.031 247.953L250.97 257.298L246.975 266.575L241.115 269.473C240.594 269.731 240.256 270.318 240.256 270.968Z" fill="#2F2E41"/>
<path d="M231.242 259.855L225.922 259.981L222.956 236.051L230.808 235.865L231.242 259.855Z" fill="#A0616A"/>
<path d="M212.989 270.968C212.989 271.868 213.627 272.598 214.414 272.598H224.974C224.974 272.598 226.013 268.415 230.25 266.615L230.543 272.598H235.991L235.331 262.978C235.331 262.978 236.788 257.832 233.761 255.201C230.735 252.571 233.186 252.937 233.186 252.937L231.996 246.983L223.763 247.953L223.703 257.298L219.708 266.575L213.848 269.473C213.327 269.731 212.989 270.318 212.989 270.968Z" fill="#2F2E41"/>
<path d="M255.578 95.7621L221.569 116.082L213.89 147.385L217.73 244.04H234.57L238.3 150.955L245.765 244.04H262.869L267.195 139.509C268.387 131.912 267.446 124.133 264.479 117.04L255.578 95.7621Z" fill="#2F2E41"/>
<path d="M247.899 33.705L233.637 32.6066L229.797 40.2951L218.827 43.041L216.084 77.0901C221.51 91.2031 224.916 104.69 221.569 116.082L263.258 113.885L256.298 95.0422C256.298 95.0422 256.127 88.0736 259.967 78.7376C263.806 69.4016 257.773 45.2377 257.773 45.2377L248.996 43.041L247.899 33.705Z" fill="#FFA500"/>
<path d="M151.87 46.95C153.259 46.9931 154.542 46.7186 155.551 46.2268L168.755 47.4738L169.164 41.1664L155.726 40.5805C154.749 40.0271 153.485 39.6736 152.096 39.6305C148.924 39.5321 146.301 41.0908 146.239 43.1121C146.176 45.1333 148.697 46.8516 151.87 46.95Z" fill="#A0616A"/>
<path d="M229.973 66.2053C229.973 66.2053 229.507 46.1118 225.105 43.0958C223.29 41.852 195.376 41.5694 194.359 41.4639C188.088 40.8133 183.625 38.3206 178.345 38.0473C165.478 37.3815 158.972 40.5078 158.972 40.5078L158.745 46.959L229.973 66.2053Z" fill="#FFA500"/>
<path d="M239.553 32.086C245.843 32.086 250.941 26.9814 250.941 20.6846C250.941 14.3879 245.843 9.2833 239.553 9.2833C233.264 9.2833 228.165 14.3879 228.165 20.6846C228.165 26.9814 233.264 32.086 239.553 32.086Z" fill="#A0616A"/>
<path d="M236.099 3.70737C233.65 5.25324 231.856 4.14648 230.106 4.92612C226.688 6.44939 220.917 17.1483 221.437 21.6275C222.174 27.9712 224.503 28.2324 224.434 32.7837C224.322 40.0922 223.742 40.0618 225.237 42.6137C226.9 45.452 236.317 44.6813 238.066 40.8324C238.41 40.0731 234.579 40.3717 230.346 30.4099C228.222 25.411 229.616 20.8559 230.346 18.8771C230.517 18.4139 230.595 15.1249 230.959 15.4899C234.156 18.6904 235.948 16.3509 237.878 16.0824C241.84 15.5314 244.823 18.7311 246.025 17.5824C246.919 16.7276 245.779 14.4675 246.212 14.3011C246.675 14.1238 248.206 16.6032 249.209 19.2699C249.855 20.9896 250.179 21.8494 250.145 22.8324C250.042 25.868 249.269 34.4747 247.899 37C244.941 42.4535 248.666 44.5113 250.988 44.1137C252.864 43.7925 261.158 45.0571 261.612 44.1394C262.017 43.3218 261.093 34.9119 260.122 27.0934C258.956 17.6961 254.279 9.06054 246.947 3.07836C246.517 2.72755 246.196 2.48685 246.025 2.39488C245.619 2.17704 241.432 0.000283837 238.347 1.73863C237.211 2.37858 237.396 2.88912 236.099 3.70737Z" fill="#2F2E41"/>
<path d="M93.8443 268.756L87.5258 268.755L84.5201 244.355L93.8455 244.356L93.8443 268.756Z" fill="#FFB6B6"/>
<path d="M72.1964 268.613C71.9997 268.944 71.8959 270.015 71.8959 270.401C71.8959 271.586 72.856 272.548 74.0404 272.548H93.6079C94.4159 272.548 95.0709 271.892 95.0709 271.083V270.267C95.0709 270.267 96.0389 267.816 94.046 264.795C94.046 264.795 91.5691 267.16 87.8679 263.455L86.7765 261.475L78.8759 267.26L74.4968 267.8C73.5387 267.918 72.6893 267.782 72.1964 268.613Z" fill="#2F2E41"/>
<path d="M120.484 268.756L114.165 268.755L111.16 244.355L120.485 244.356L120.484 268.756Z" fill="#FFB6B6"/>
<path d="M98.8361 268.613C98.6393 268.944 98.5355 270.015 98.5355 270.401C98.5355 271.586 99.4956 272.548 100.68 272.548H120.248C121.056 272.548 121.711 271.892 121.711 271.083V270.267C121.711 270.267 122.679 267.816 120.686 264.795C120.686 264.795 118.209 267.16 114.508 263.455L113.416 261.475L105.516 267.26L101.136 267.8C100.178 267.918 99.3289 267.782 98.8361 268.613Z" fill="#2F2E41"/>
<path d="M121.737 114.706L75.384 114.172L70.5889 144.577L82.3103 249.661H97.6774L101.224 151.778L107.618 251.528H123.352L130.528 137.909L121.737 114.706Z" fill="#2F2E41"/>
<path d="M318.248 264.565C319.349 264.634 319.957 263.265 319.124 262.467L319.041 262.137C319.052 262.111 319.063 262.085 319.074 262.058C320.187 259.401 323.96 259.419 325.064 262.081C326.043 264.443 327.29 266.809 327.597 269.306C327.735 270.409 327.673 271.532 327.429 272.614C329.724 267.594 330.932 262.112 330.932 256.6C330.932 255.215 330.856 253.83 330.702 252.448C330.574 251.318 330.399 250.195 330.172 249.082C328.943 243.067 326.283 237.337 322.446 232.552C320.601 231.542 319.063 229.965 318.134 228.073C317.8 227.391 317.539 226.657 317.415 225.909C317.625 225.937 318.206 222.736 318.048 222.54C318.341 222.096 318.864 221.875 319.184 221.441C320.773 219.284 322.962 219.661 324.105 222.592C326.546 223.825 326.57 225.871 325.072 227.839C324.119 229.091 323.988 230.785 323.151 232.125C323.238 232.235 323.327 232.342 323.413 232.452C324.991 234.478 326.355 236.655 327.505 238.943C327.18 236.401 327.66 233.338 328.478 231.363C329.41 229.114 331.156 227.219 332.693 225.274C334.54 222.938 338.327 223.958 338.652 226.919C338.655 226.948 338.658 226.976 338.661 227.005C338.433 227.134 338.209 227.271 337.991 227.416C336.744 228.241 337.175 230.176 338.652 230.404L338.685 230.409C338.603 231.232 338.461 232.049 338.255 232.852C340.227 240.488 335.969 243.269 329.889 243.394C329.755 243.463 329.624 243.532 329.49 243.598C330.106 245.334 330.598 247.115 330.963 248.92C331.29 250.516 331.517 252.128 331.644 253.747C331.803 255.79 331.789 257.844 331.617 259.883L331.627 259.811C332.064 257.565 333.282 255.467 335.051 254.013C337.686 251.846 341.409 251.047 344.252 249.306C345.62 248.467 347.374 249.551 347.135 251.139L347.123 251.215C346.7 251.387 346.287 251.587 345.888 251.811C345.659 251.94 345.436 252.077 345.217 252.222C343.971 253.047 344.401 254.982 345.878 255.21L345.912 255.215C345.936 255.218 345.957 255.222 345.981 255.225C345.255 256.951 344.243 258.554 342.976 259.935C341.743 266.601 336.446 267.234 330.781 265.292H330.777C330.158 267.994 329.253 270.633 328.09 273.148H318.489C318.454 273.041 318.423 272.931 318.392 272.824C319.28 272.879 320.175 272.827 321.049 272.665C320.336 271.79 319.624 270.908 318.912 270.033C318.895 270.016 318.881 269.999 318.867 269.981C318.506 269.534 318.141 269.089 317.78 268.641C317.757 267.266 317.922 265.895 318.248 264.565Z" fill="#F2F2F2"/>
<path d="M0 273.365C0 273.717 0.282396 274 0.634055 274H351.366C351.718 274 352 273.717 352 273.365C352 273.013 351.718 272.73 351.366 272.73H0.634055C0.282396 272.73 0 273.013 0 273.365Z" fill="#CCCCCC"/>
<path d="M106.02 34.9597H89.5219L86.3062 41.3607L70.5889 48.5871L76.1832 89.9018L71.9208 117.106H125.164L120.405 85.6345L126.798 47.7617L109.216 40.8273L106.02 34.9597Z" fill="#E6E6E6"/>
<path d="M161.242 135.073C160.523 133.603 160.195 132.093 160.232 130.771L152.494 117.203L159.05 113.706L166.193 127.845C167.26 128.626 168.251 129.811 168.971 131.281C170.614 134.638 170.217 138.209 168.083 139.256C165.949 140.303 162.886 138.43 161.242 135.073Z" fill="#FFB6B6"/>
<path d="M110.239 45.9411C110.239 45.9411 115.459 40.564 121.315 44.3059C127.17 48.0478 148.532 86.3385 148.532 86.3385L165.009 119.257L153.378 124.682L139.346 93.1598L109.877 61.41L110.239 45.9411Z" fill="#E6E6E6"/>
<path d="M97.0721 31.8396C105.3 31.8396 111.969 25.1621 111.969 16.9249C111.969 8.68779 105.3 2.01026 97.0721 2.01026C88.8446 2.01026 82.1749 8.68779 82.1749 16.9249C82.1749 25.1621 88.8446 31.8396 97.0721 31.8396Z" fill="#FFB6B6"/>
<path d="M92.3969 28.9284C92.4658 30.3896 92.5003 31.1202 92.2761 31.2085C91.6012 31.4743 82.9099 26.3354 81.8865 22.9145C81.4092 21.319 81.8122 21.2872 81.4638 16.7481C81.1306 12.4067 80.757 12.3721 81.1987 11.298C81.6896 10.1043 83.1888 8.63343 86.1871 5.69175C87.3208 4.57948 87.8876 4.02334 88.2454 3.7358C89.3299 2.86432 93.3701 -0.382231 97.0749 0.0372122C98.6277 0.213032 98.3623 0.833761 104.164 3.9834C104.663 4.25469 105.333 4.61281 106.259 5.02398C108.509 6.02399 109.906 6.28324 110.641 6.56211C115.095 8.25222 113.788 17.6669 113.405 17.7209C113.266 17.7406 113.228 16.5197 112.497 16.4188C111.839 16.328 111.42 17.255 110.822 17.2887C109.189 17.3809 111.002 15.8156 107.005 14.0772C105.451 13.4013 109.775 16.4485 105.659 16.3991C99.2222 16.3217 103.339 16.7318 100.894 18.0174C99.1117 18.9549 91.9402 13.7954 92.2316 15.4441C92.4371 16.607 93.2799 16.9417 93.1583 18.2445C93.0405 19.5066 92.0932 20.8669 91.2575 20.9168C90.4873 20.9629 90.0652 19.8808 89.8083 19.9843C89.5288 20.097 89.8357 21.4549 90.4383 22.8501C91.2034 24.6212 91.66 24.6351 92.0635 25.9973C92.2956 26.7808 92.3293 27.4967 92.3969 28.9284Z" fill="#2F2E41"/>
<path d="M209.811 130.694L113.824 106.243C107.688 104.68 103.966 98.4109 105.527 92.2679L117.469 45.2785C119.03 39.1355 125.292 35.4092 131.428 36.9721L227.414 61.4224C233.55 62.9854 237.272 69.2548 235.711 75.3979L223.77 122.387C222.209 128.53 215.947 132.257 209.811 130.694Z" fill="white"/>
<path d="M209.811 130.694L113.824 106.243C110.756 105.462 108.292 103.504 106.531 100.907C103.97 97.1298 103.301 92.3738 104.426 87.949L114.439 48.5452C115.564 44.1204 118.421 40.2625 122.475 38.1698C125.26 36.7315 128.36 36.1907 131.428 36.9721L227.414 61.4224C233.56 62.9879 237.275 69.2449 235.711 75.3979L223.77 122.387C222.209 128.53 215.947 132.257 209.811 130.694ZM131.165 38.006C125.59 36.5859 127.047 41.6412 125.628 47.2232C118.708 74.4566 133.022 102.612 159.092 113.025C173.165 118.645 184.87 123.24 184.87 123.24C204.365 128.206 224.189 116.409 229.149 96.8914L234.678 75.1348C236.097 69.5529 232.727 63.8765 227.152 62.4563L131.165 38.006Z" fill="#FFA500"/>
<path d="M176.077 75.0351C175.408 69.53 170.408 65.6101 164.909 66.2798C159.463 66.9431 155.573 71.8608 156.149 77.3039L155.99 77.3234L158.412 97.2591L176.735 95.0276C177.314 95.0589 177.903 95.0434 178.499 94.9708C183.997 94.3011 187.913 89.2955 187.244 83.7904C186.575 78.2853 181.575 74.3654 176.077 75.0351Z" fill="#FFA500"/>
<path d="M140.955 263.361C140.179 261.359 137.929 260.366 135.93 261.142C133.949 261.912 132.958 264.129 133.693 266.117L133.635 266.14L136.446 273.39L143.109 270.801C143.329 270.757 143.549 270.695 143.766 270.611C145.765 269.834 146.757 267.581 145.981 265.579C145.205 263.577 142.955 262.584 140.955 263.361Z" fill="#E6E6E6"/>
<path d="M290.137 263.361C289.361 261.359 287.111 260.366 285.111 261.142C283.131 261.912 282.14 264.129 282.875 266.117L282.817 266.14L285.628 273.39L292.291 270.801C292.511 270.757 292.731 270.695 292.948 270.611C294.947 269.834 295.939 267.581 295.163 265.579C294.387 263.577 292.137 262.584 290.137 263.361Z" fill="#E6E6E6"/>
<path d="M168.209 132.494C175.271 132.494 180.996 126.762 180.996 119.692C180.996 112.621 175.271 106.89 168.209 106.89C161.147 106.89 155.422 112.621 155.422 119.692C155.422 126.762 161.147 132.494 168.209 132.494Z" fill="#FFA500"/>
<path d="M110.081 67.7724C108.709 68.6624 107.25 69.1683 105.934 69.2884L93.3987 78.5929L89.1509 72.4914L102.324 63.7099C102.972 62.5571 104.029 61.4306 105.401 60.5407C108.536 58.5076 112.124 58.4784 113.416 60.4754C114.709 62.4724 113.215 65.7393 110.081 67.7724Z" fill="#FFB6B6"/>
<path d="M80.72 46.0599C80.72 46.0599 71.1298 44.993 69.5314 48.727C67.933 52.4609 64.7362 89.8002 64.7362 89.8002L70.0642 98.8683L105.004 72.3936L97.9284 65.3096L82.954 72.3936L80.72 46.0599Z" fill="#E6E6E6"/>
<path d="M219.626 58.1253C220.766 59.2988 222.076 60.1173 223.332 60.5277L233.483 72.3936L238.981 67.3924L228.092 55.8942C227.717 54.626 226.937 53.2921 225.797 52.1186C223.194 49.4377 219.702 48.6091 217.998 50.2678C216.294 51.9265 217.023 55.4444 219.626 58.1253Z" fill="#A0616A"/>
<path d="M253.08 43.5044C253.08 43.5044 262.666 44.6027 263.394 48.5992C264.122 52.5958 258.932 89.7101 258.932 89.7101L251.721 97.3625L223.548 63.7623L232.022 58.4339L245.044 68.6787L253.08 43.5044Z" fill="#FFA500"/>
<path d="M123.817 86.5965C128.232 86.5965 131.811 83.0132 131.811 78.5929C131.811 74.1726 128.232 70.5893 123.817 70.5893C119.402 70.5893 115.822 74.1726 115.822 78.5929C115.822 83.0132 119.402 86.5965 123.817 86.5965Z" fill="#E6E6E6"/>
</svg>
