<svg width="134" height="27" viewBox="0 0 134 27" fill="none" xmlns="http://www.w3.org/2000/svg">
<path d="M78.616 8.464C80.6426 8.464 82.2 9.264 83.288 10.864C84.376 12.4427 84.92 14.6613 84.92 17.52C84.92 19.2693 84.6426 20.8267 84.088 22.192C83.5546 23.5573 82.776 24.624 81.752 25.392C80.7493 26.16 79.5546 26.544 78.168 26.544C77.2506 26.544 76.408 26.352 75.64 25.968C74.8933 25.584 74.2533 25.0507 73.72 24.368L73.464 26H68.984V2.256L74.04 1.712V10.736C74.552 10.032 75.2026 9.47733 75.992 9.072C76.8026 8.66667 77.6773 8.464 78.616 8.464ZM76.696 22.864C78.68 22.864 79.672 21.0827 79.672 17.52C79.672 15.4933 79.4373 14.096 78.968 13.328C78.4986 12.56 77.816 12.176 76.92 12.176C75.7893 12.176 74.8293 12.8373 74.04 14.16V21.232C74.36 21.744 74.744 22.1493 75.192 22.448C75.6613 22.7253 76.1626 22.864 76.696 22.864Z" fill="#F2CE1B"/>
<path d="M95.4377 8.464C98.0404 8.464 100.078 9.264 101.55 10.864C103.022 12.4427 103.758 14.6613 103.758 17.52C103.758 19.3333 103.416 20.9227 102.734 22.288C102.072 23.632 101.112 24.6773 99.8537 25.424C98.6164 26.1707 97.1444 26.544 95.4377 26.544C92.8564 26.544 90.8191 25.7547 89.3257 24.176C87.8537 22.576 87.1177 20.3467 87.1177 17.488C87.1177 15.6747 87.4484 14.096 88.1097 12.752C88.7924 11.3867 89.7524 10.3307 90.9897 9.584C92.2484 8.83733 93.7311 8.464 95.4377 8.464ZM95.4377 12.176C94.4137 12.176 93.6457 12.6133 93.1337 13.488C92.6217 14.3413 92.3657 15.6747 92.3657 17.488C92.3657 19.344 92.6111 20.6987 93.1017 21.552C93.6137 22.4053 94.3924 22.832 95.4377 22.832C96.4617 22.832 97.2297 22.4053 97.7417 21.552C98.2537 20.6773 98.5097 19.3333 98.5097 17.52C98.5097 15.664 98.2537 14.3093 97.7417 13.456C97.2511 12.6027 96.4831 12.176 95.4377 12.176Z" fill="#F2CE1B"/>
<path d="M115.981 8.528C116.6 8.528 117.165 8.60267 117.677 8.752L116.877 13.648C116.237 13.4987 115.725 13.424 115.341 13.424C114.339 13.424 113.571 13.776 113.037 14.48C112.525 15.1627 112.12 16.1973 111.821 17.584V26H106.765V9.008H111.181L111.597 12.304C111.981 11.1307 112.557 10.2133 113.325 9.552C114.115 8.86933 115 8.528 115.981 8.528Z" fill="#F2CE1B"/>
<path d="M131.988 21.072C131.988 21.712 132.073 22.1813 132.244 22.48C132.436 22.7787 132.735 23.0027 133.14 23.152L132.084 26.448C131.039 26.3627 130.185 26.1387 129.524 25.776C128.863 25.392 128.351 24.7947 127.988 23.984C126.879 25.6907 125.172 26.544 122.868 26.544C121.183 26.544 119.839 26.0533 118.836 25.072C117.833 24.0907 117.332 22.8107 117.332 21.232C117.332 19.376 118.015 17.9573 119.38 16.976C120.745 15.9947 122.719 15.504 125.3 15.504H127.028V14.768C127.028 13.7653 126.815 13.0827 126.388 12.72C125.961 12.336 125.215 12.144 124.148 12.144C123.593 12.144 122.921 12.2293 122.132 12.4C121.343 12.5493 120.532 12.7627 119.7 13.04L118.548 9.712C119.615 9.30667 120.703 8.99733 121.812 8.784C122.943 8.57067 123.988 8.464 124.948 8.464C127.38 8.464 129.161 8.96533 130.292 9.968C131.423 10.9707 131.988 12.4747 131.988 14.48V21.072ZM124.34 22.928C125.492 22.928 126.388 22.384 127.028 21.296V18.288H125.78C124.628 18.288 123.764 18.4907 123.188 18.896C122.633 19.3013 122.356 19.9307 122.356 20.784C122.356 21.4667 122.527 22 122.868 22.384C123.231 22.7467 123.721 22.928 124.34 22.928Z" fill="#F2CE1B"/>
<path d="M8.34399 7.464C9.51732 7.464 10.5733 7.63467 11.512 7.976C12.4507 8.31733 13.336 8.84 14.168 9.544L11.992 12.552C10.9253 11.7413 9.84799 11.336 8.75999 11.336C7.62932 11.336 6.77599 11.752 6.19999 12.584C5.62399 13.416 5.33599 14.76 5.33599 16.616C5.33599 18.408 5.62399 19.6773 6.19999 20.424C6.77599 21.1707 7.60799 21.544 8.69599 21.544C9.27199 21.544 9.79465 21.4587 10.264 21.288C10.7333 21.096 11.2987 20.7973 11.96 20.392L14.168 23.528C12.4827 24.872 10.5733 25.544 8.43999 25.544C6.71199 25.544 5.21865 25.1813 3.95999 24.456C2.70132 23.7093 1.73065 22.6747 1.04799 21.352C0.36532 20.008 0.0239868 18.44 0.0239868 16.648C0.0239868 14.856 0.36532 13.2667 1.04799 11.88C1.73065 10.4933 2.70132 9.416 3.95999 8.648C5.21865 7.85867 6.67999 7.464 8.34399 7.464Z" fill="white"/>
<path d="M23.0315 7.464C25.6342 7.464 27.6715 8.264 29.1435 9.864C30.6155 11.4427 31.3515 13.6613 31.3515 16.52C31.3515 18.3333 31.0102 19.9227 30.3275 21.288C29.6662 22.632 28.7062 23.6773 27.4475 24.424C26.2102 25.1707 24.7382 25.544 23.0315 25.544C20.4502 25.544 18.4128 24.7547 16.9195 23.176C15.4475 21.576 14.7115 19.3467 14.7115 16.488C14.7115 14.6747 15.0422 13.096 15.7035 11.752C16.3862 10.3867 17.3462 9.33067 18.5835 8.584C19.8422 7.83733 21.3248 7.464 23.0315 7.464ZM23.0315 11.176C22.0075 11.176 21.2395 11.6133 20.7275 12.488C20.2155 13.3413 19.9595 14.6747 19.9595 16.488C19.9595 18.344 20.2048 19.6987 20.6955 20.552C21.2075 21.4053 21.9862 21.832 23.0315 21.832C24.0555 21.832 24.8235 21.4053 25.3355 20.552C25.8475 19.6773 26.1035 18.3333 26.1035 16.52C26.1035 14.664 25.8475 13.3093 25.3355 12.456C24.8448 11.6027 24.0768 11.176 23.0315 11.176Z" fill="white"/>
<path d="M38.871 25.544C37.399 25.544 36.247 25.128 35.415 24.296C34.6043 23.4427 34.199 22.2373 34.199 20.68V1.256L39.255 0.711998V20.488C39.255 21.192 39.543 21.544 40.119 21.544C40.4177 21.544 40.695 21.4907 40.951 21.384L41.943 24.968C41.0257 25.352 40.0017 25.544 38.871 25.544Z" fill="white"/>
<path d="M57.2067 20.072C57.2067 20.712 57.2921 21.1813 57.4627 21.48C57.6547 21.7787 57.9534 22.0027 58.3587 22.152L57.3027 25.448C56.2574 25.3627 55.4041 25.1387 54.7427 24.776C54.0814 24.392 53.5694 23.7947 53.2067 22.984C52.0974 24.6907 50.3907 25.544 48.0867 25.544C46.4014 25.544 45.0574 25.0533 44.0547 24.072C43.0521 23.0907 42.5507 21.8107 42.5507 20.232C42.5507 18.376 43.2334 16.9573 44.5987 15.976C45.9641 14.9947 47.9374 14.504 50.5187 14.504H52.2467V13.768C52.2467 12.7653 52.0334 12.0827 51.6067 11.72C51.1801 11.336 50.4334 11.144 49.3667 11.144C48.8121 11.144 48.1401 11.2293 47.3507 11.4C46.5614 11.5493 45.7507 11.7627 44.9187 12.04L43.7667 8.712C44.8334 8.30667 45.9214 7.99733 47.0307 7.784C48.1614 7.57067 49.2067 7.464 50.1667 7.464C52.5987 7.464 54.3801 7.96533 55.5107 8.968C56.6414 9.97067 57.2067 11.4747 57.2067 13.48V20.072ZM49.5587 21.928C50.7107 21.928 51.6067 21.384 52.2467 20.296V17.288H50.9987C49.8467 17.288 48.9827 17.4907 48.4067 17.896C47.8521 18.3013 47.5747 18.9307 47.5747 19.784C47.5747 20.4667 47.7454 21 48.0867 21.384C48.4494 21.7467 48.9401 21.928 49.5587 21.928Z" fill="white"/>
<path d="M63.09 19.752C63.8793 19.752 64.5513 20.04 65.106 20.616C65.682 21.1707 65.97 21.8427 65.97 22.632C65.97 23.4427 65.682 24.136 65.106 24.712C64.5513 25.2667 63.8793 25.544 63.09 25.544C62.2793 25.544 61.586 25.2667 61.01 24.712C60.4553 24.136 60.178 23.4427 60.178 22.632C60.178 21.8427 60.4553 21.1707 61.01 20.616C61.586 20.04 62.2793 19.752 63.09 19.752Z" fill="white"/>
</svg>
